<svg width="48" height="46" viewBox="0 0 48 46" fill="none" xmlns="http://www.w3.org/2000/svg">
<path d="M2.05144 30.1026C-0.701178 27.3604 -0.68116 22.9344 2.09615 20.2166C4.87345 17.4989 9.35634 17.5187 12.109 20.2608L24.0248 32.1311L13.9672 41.9729L2.05144 30.1026Z" fill="#1B71BA"/>
<path d="M45.9486 30.0866C48.7012 27.3445 48.6812 22.9184 45.9039 20.2007C43.1265 17.483 38.6437 17.5028 35.891 20.2449L23.9752 32.1152L34.0328 41.957L45.9486 30.0866Z" fill="#0095E0"/>
<path d="M23.5851 37.8144C23.5851 38.4881 23.032 39.0342 22.3496 39.0342C21.6673 39.0342 21.1141 38.4881 21.1141 37.8144C21.1141 37.1407 21.6673 36.5946 22.3496 36.5946C23.032 36.5946 23.5851 37.1407 23.5851 37.8144Z" fill="#0095E0"/>
<path d="M23.0649 41.3454C23.0649 42.4801 22.1333 43.3999 20.9841 43.3999C19.8349 43.3999 18.9033 42.4801 18.9033 41.3454C18.9033 40.2108 19.8349 39.291 20.9841 39.291C22.1333 39.291 23.0649 40.2108 23.0649 41.3454Z" fill="#1B71BA"/>
<path d="M31.7782 42.6615C31.7782 44.5053 30.2644 46 28.3969 46C26.5295 46 25.0156 44.5053 25.0156 42.6615C25.0156 40.8178 26.5295 39.3231 28.3969 39.3231C30.2644 39.3231 31.7782 40.8178 31.7782 42.6615Z" fill="#0095E0"/>
<path d="M27.0964 36.5946C27.0964 37.4455 26.3977 38.1354 25.5358 38.1354C24.6739 38.1354 23.9752 37.4455 23.9752 36.5946C23.9752 35.7436 24.6739 35.0537 25.5358 35.0537C26.3977 35.0537 27.0964 35.7436 27.0964 36.5946Z" fill="#1B71BA"/>
<path d="M23.2638 26.4703C20.6069 20.4435 18.9428 6.93054 36.7676 4.59029e-05C36.8598 -0.0358078 43.0254 20.9421 23.2638 26.4703Z" fill="#1B71BA"/>
<path d="M13.8606 6.63018C17.8069 8.33799 20.3931 10.4491 22.0215 12.6807C20.1974 17.8829 21.2543 23.0589 22.6338 26.2859C8.77677 21.5435 13.7919 6.60978 13.8606 6.63018Z" fill="#0095E0"/>
</svg>
