<svg width="178" height="48" viewBox="0 0 178 48" fill="none" xmlns="http://www.w3.org/2000/svg">
<path d="M2.09417 31.4114C-0.715786 28.55 -0.695351 23.9315 2.13982 21.0956C4.97498 18.2597 9.55126 18.2804 12.3612 21.1417L24.5253 33.5281L14.2582 43.7978L2.09417 31.4114Z" fill="#1B71BA"/>
<path d="M46.9058 31.3947C49.7158 28.5334 49.6954 23.9149 46.8602 21.079C44.025 18.2431 39.4487 18.2637 36.6388 21.1251L24.4747 33.5115L34.7418 43.7812L46.9058 31.3947Z" fill="#0095E0"/>
<path d="M24.0765 39.4585C24.0765 40.1615 23.5118 40.7313 22.8152 40.7313C22.1187 40.7313 21.554 40.1615 21.554 39.4585C21.554 38.7555 22.1187 38.1856 22.8152 38.1856C23.5118 38.1856 24.0765 38.7555 24.0765 39.4585Z" fill="#0095E0"/>
<path d="M23.5454 43.1431C23.5454 44.327 22.5944 45.2868 21.4213 45.2868C20.2481 45.2868 19.2971 44.327 19.2971 43.1431C19.2971 41.9591 20.2481 40.9993 21.4213 40.9993C22.5944 40.9993 23.5454 41.9591 23.5454 43.1431Z" fill="#1B71BA"/>
<path d="M32.4403 44.5164C32.4403 46.4403 30.8949 48 28.9885 48C27.0822 48 25.5368 46.4403 25.5368 44.5164C25.5368 42.5925 27.0822 41.0328 28.9885 41.0328C30.8949 41.0328 32.4403 42.5925 32.4403 44.5164Z" fill="#0095E0"/>
<path d="M27.661 38.1856C27.661 39.0736 26.9477 39.7934 26.0678 39.7934C25.188 39.7934 24.4747 39.0736 24.4747 38.1856C24.4747 37.2977 25.188 36.5778 26.0678 36.5778C26.9477 36.5778 27.661 37.2977 27.661 38.1856Z" fill="#1B71BA"/>
<path d="M23.7484 27.6212C21.0362 21.3324 19.3374 7.23187 37.5336 4.78986e-05C37.6277 -0.0373647 43.9218 21.8527 23.7484 27.6212Z" fill="#1B71BA"/>
<path d="M14.1494 6.91845C18.1779 8.70052 20.8179 10.9034 22.4803 13.2321C20.6182 18.6604 21.6971 24.0615 23.1053 27.4288C8.95961 22.4802 14.0793 6.89716 14.1494 6.91845Z" fill="#0095E0"/>
<path d="M81.2823 43.5739V18.221H80.9095L74.2517 43.5739H67.7537L61.1491 18.221H60.7763V43.5739H53V6.92943H64.8775L71.0027 30.4181H71.3755L77.5007 6.92943H89.2716V43.5739H81.2823Z" fill="white"/>
<path d="M116.685 32.1225H102.358C102.358 34.0399 102.464 35.3715 102.677 36.1172C102.89 36.8273 103.387 37.3067 104.168 37.5553C104.985 37.8038 106.405 37.9281 108.429 37.9281C109.956 37.9281 112.424 37.7861 115.833 37.502V43.1478C114.768 43.3964 113.365 43.5917 111.625 43.7337C109.921 43.9112 108.252 44 106.619 44C102.961 44 100.28 43.5384 98.5759 42.6152C96.907 41.692 95.8418 40.3071 95.3802 38.4607C94.9186 36.6143 94.6878 33.8091 94.6878 30.0453C94.6878 26.3524 94.9186 23.565 95.3802 21.6831C95.8418 19.8012 96.8715 18.3808 98.4694 17.4221C100.067 16.4634 102.588 15.984 106.033 15.984C109.441 15.984 111.891 16.4456 113.383 17.3688C114.874 18.2565 115.797 19.6059 116.152 21.4168C116.508 23.2277 116.685 26.1039 116.685 30.0453V32.1225ZM105.926 21.8961C104.825 21.8961 104.026 22.0204 103.529 22.269C103.068 22.5175 102.748 23.0324 102.571 23.8136C102.429 24.5593 102.358 25.8198 102.358 27.5952H109.388C109.388 25.7843 109.299 24.506 109.122 23.7603C108.944 22.9791 108.625 22.482 108.163 22.269C107.702 22.0204 106.956 21.8961 105.926 21.8961Z" fill="white"/>
<path d="M128.943 44C126.954 44 125.392 43.5917 124.256 42.775C123.12 41.9583 122.285 40.5557 121.752 38.5672C121.255 36.5788 121.007 33.7381 121.007 30.0453C121.007 26.4234 121.255 23.6005 121.752 21.5766C122.25 19.5526 123.049 18.1145 124.149 17.2623C125.286 16.4101 126.848 15.984 128.836 15.984C130.434 15.984 131.766 16.2326 132.831 16.7297C133.932 17.2268 134.802 18.079 135.441 19.2863H135.867V4H143.59V43.5739H136.293L136.08 40.3249H135.601C135.033 41.7097 134.163 42.6684 132.991 43.2011C131.819 43.7337 130.47 44 128.943 44ZM132.352 37.3955C133.275 37.3955 133.967 37.2712 134.429 37.0226C134.891 36.7741 135.228 36.2947 135.441 35.5846C135.618 34.9809 135.725 34.253 135.76 33.4008C135.831 32.5486 135.867 31.4123 135.867 29.992C135.867 27.3999 135.743 25.6778 135.494 24.8256C135.317 23.9379 134.979 23.352 134.482 23.0679C134.021 22.7483 133.31 22.5885 132.352 22.5885C131.144 22.5885 130.31 22.7306 129.848 23.0146C129.387 23.2987 129.085 23.9201 128.943 24.8788C128.801 25.8376 128.73 27.5419 128.73 29.992C128.73 32.4421 128.801 34.1465 128.943 35.1052C129.085 36.0639 129.387 36.6853 129.848 36.9694C130.31 37.2534 131.144 37.3955 132.352 37.3955Z" fill="white"/>
<path d="M168.388 43.5739L162.422 31.3236H161.996L156.031 43.5739H147.136L156.99 25.1451L147.296 6.92943H156.51L162.263 18.8069H162.689L168.548 6.92943H177.496L167.802 24.9854L177.602 43.5739H168.388Z" fill="white"/>
</svg>
